<svg width="25" height="25" viewBox="0 0 25 25" fill="none" xmlns="http://www.w3.org/2000/svg">
<path d="M3.125 8.33329C3.125 8.90621 3.59375 9.37496 4.16667 9.37496C4.73958 9.37496 5.20833 8.90621 5.20833 8.33329V6.24996H7.29167C7.86458 6.24996 8.33333 5.78121 8.33333 5.20829C8.33333 4.63538 7.86458 4.16663 7.29167 4.16663H5.20833V2.08329C5.20833 1.51038 4.73958 1.04163 4.16667 1.04163C3.59375 1.04163 3.125 1.51038 3.125 2.08329V4.16663H1.04167C0.46875 4.16663 0 4.63538 0 5.20829C0 5.78121 0.46875 6.24996 1.04167 6.24996H3.125V8.33329Z" fill="white"/>
<path d="M13.5417 17.7084C15.2676 17.7084 16.6667 16.3093 16.6667 14.5834C16.6667 12.8575 15.2676 11.4584 13.5417 11.4584C11.8158 11.4584 10.4167 12.8575 10.4167 14.5834C10.4167 16.3093 11.8158 17.7084 13.5417 17.7084Z" fill="white"/>
<path d="M21.875 6.24996H18.5729L17.2812 4.84371C17.0871 4.63058 16.8507 4.46028 16.587 4.34369C16.3234 4.22711 16.0383 4.1668 15.75 4.16663H9.08333C9.26042 4.47913 9.375 4.82288 9.375 5.20829C9.375 6.35413 8.4375 7.29163 7.29167 7.29163H6.25V8.33329C6.25 9.47913 5.3125 10.4166 4.16667 10.4166C3.78125 10.4166 3.4375 10.302 3.125 10.125V20.8333C3.125 21.9791 4.0625 22.9166 5.20833 22.9166H21.875C23.0208 22.9166 23.9583 21.9791 23.9583 20.8333V8.33329C23.9583 7.18746 23.0208 6.24996 21.875 6.24996ZM13.5417 19.7916C10.6667 19.7916 8.33333 17.4583 8.33333 14.5833C8.33333 11.7083 10.6667 9.37496 13.5417 9.37496C16.4167 9.37496 18.75 11.7083 18.75 14.5833C18.75 17.4583 16.4167 19.7916 13.5417 19.7916Z" fill="white"/>
</svg>
