<svg width="34" height="34" viewBox="0 0 34 34" fill="none" xmlns="http://www.w3.org/2000/svg">
<path d="M32.9922 18.5048L18.0826 1.32223C17.9478 1.16675 17.7812 1.04205 17.594 0.956593C17.4069 0.871133 17.2035 0.826904 16.9977 0.826904C16.792 0.826904 16.5886 0.871133 16.4014 0.956593C16.2143 1.04205 16.0476 1.16675 15.9129 1.32223L1.00779 18.5048C0.962751 18.5566 0.933547 18.6203 0.923658 18.6882C0.913769 18.7561 0.923611 18.8254 0.952013 18.8879C0.980415 18.9504 1.02618 19.0034 1.08385 19.0406C1.14153 19.0778 1.20869 19.0977 1.27732 19.0978H4.91599C5.12264 19.0978 5.32029 19.008 5.45955 18.8507L15.2929 7.51695V32.8125C15.2929 33.0101 15.4547 33.1718 15.6523 33.1718H18.3476C18.5453 33.1718 18.707 33.0101 18.707 32.8125V7.51695L28.5404 18.8507C28.6752 19.008 28.8728 19.0978 29.084 19.0978H32.7226C33.0281 19.0978 33.1943 18.7384 32.9922 18.5048Z" fill="#91614C"/>
</svg>
