<svg width="39" height="39" viewBox="0 0 39 39" fill="none" xmlns="http://www.w3.org/2000/svg">
<path d="M32.5 25.1875C30.4688 25.1875 28.5188 24.8625 26.6988 24.2613C26.413 24.1702 26.108 24.1585 25.8161 24.2271C25.5242 24.2958 25.2564 24.4424 25.0412 24.6513L21.4663 28.2263C16.8532 25.8801 13.1036 22.1306 10.7575 17.5175L14.3325 13.9262C14.5477 13.7221 14.7003 13.4607 14.7722 13.1729C14.8442 12.8851 14.8326 12.5827 14.7387 12.3013C14.1223 10.4293 13.8096 8.4708 13.8125 6.5C13.8125 5.60625 13.0813 4.875 12.1875 4.875H6.5C5.60625 4.875 4.875 5.60625 4.875 6.5C4.875 21.7588 17.2412 34.125 32.5 34.125C33.3938 34.125 34.125 33.3938 34.125 32.5V26.8125C34.125 25.9187 33.3938 25.1875 32.5 25.1875ZM34.125 9.75H29.25V4.875H26V9.75H21.125V13H26V17.875H29.25V13H34.125V9.75Z" fill="#814A33"/>
</svg>
